<svg height="85.333336" viewBox="0 0 85.333336 85.333336" width="85.333336" xmlns="http://www.w3.org/2000/svg"><g transform="matrix(.13333333 0 0 -.13333333 0 85.333333)"><path d="m640 320c0-176.73-143.27-320-320-320s-320 143.27-320 320 143.27 320 320 320 320-143.27 320-320" fill="#c84755"/><path d="m470.461 140h-300.922c-44 0-62 31.176-40 69.281l150.461 260.602c11 19.055 25.5 28.582 40 28.582s29-9.527 40-28.582l150.461-260.602c22-38.105 4-69.281-40-69.281" fill="#a43f4a"/><path d="m169.539 160c-44 0-62 31.176-40 69.281l150.461 260.602c22 38.105 58 38.105 80 0l150.461-260.602c22-38.105 4-69.281-40-69.281z" fill="#f3cc70"/><g fill="#495672"><path d="m340 320c0-11.047-8.953-20-20-20s-20 8.953-20 20v80c0 11.047 8.953 20 20 20s20-8.953 20-20z"/><path d="m340 240c0-11.047-8.953-20-20-20s-20 8.953-20 20 8.953 20 20 20 20-8.953 20-20"/></g></g></svg>