<svg height="85.333336" viewBox="0 0 85.333336 85.333336" width="85.333336" xmlns="http://www.w3.org/2000/svg"><g transform="matrix(.13333333 0 0 -.13333333 0 85.333333)"><path d="m640 320c0-176.73-143.27-320-320-320s-320 143.27-320 320 143.27 320 320 320 320-143.27 320-320" fill="#77caa9"/><path d="m420 150h-200c-22.09 0-40 17.906-40 40v200-180c0-22.094 17.91-40 40-40h200c22.09 0 40 17.906 40 40v-20c0-22.094-17.91-40-40-40" fill="#62a48d"/><path d="m220 190c-11.023 0-20 8.977-20 20v200c0 11.023 8.977 20 20 20h200c11.023 0 20-8.977 20-20v-200c0-11.023-8.977-20-20-20z" fill="#fff"/><path d="m420 450h-200c-22.09 0-40-17.906-40-40v-200c0-22.094 17.91-40 40-40h200c22.09 0 40 17.906 40 40v200c0 22.094-17.91 40-40 40m0-40v-200h-200v200z" fill="#495672"/><path d="m460 396.531v13.469c0 11.109-4.527 21.16-11.84 28.406 8.285 6.391 16.945 12.551 25.985 18.391 3.355 2.172 7.117 3.207 10.835 3.207 6.567 0 12.997-3.227 16.817-9.149 5.996-9.277 3.336-21.66-5.942-27.652-12.761-8.246-24.707-17.234-35.855-26.672" fill="#62a48d"/><path d="m324.516 230c-6.18 0-12.071 2.867-15.879 7.852l-61.192 80c-6.707 8.769-5.035 21.324 3.743 28.031 3.625 2.769 7.898 4.109 12.136 4.109 6.016 0 11.957-2.695 15.895-7.844l41.871-54.742c16.758 30.149 47.773 78.586 94.012 122.594h4.898v-52.437c-51.281-57.012-76.781-114.719-77.133-115.532-2.828-6.504-8.883-11.023-15.926-11.886z" fill="#d4d3d1"/><path d="m420 357.563v52.437h-4.898c10.265 9.773 21.277 19.32 33.058 28.406 7.313-7.246 11.84-17.297 11.84-28.406v-13.469c-14.73-12.465-28.066-25.703-40-38.968" fill="#404a5f"/><path d="m324.52 250c-6.18 0-12.071 2.871-15.887 7.852l-61.192 80c-6.711 8.769-5.039 21.328 3.743 28.039 8.765 6.699 21.336 5.027 28.035-3.743l41.875-54.746c23.086 41.551 73.254 117.832 153.047 169.395 9.289 5.984 21.66 3.332 27.656-5.938 5.996-9.277 3.34-21.66-5.938-27.656-102.082-65.957-152.5-180.027-153-181.172-2.82-6.504-8.875-11.023-15.918-11.886z" fill="#c84755"/></g></svg>